{"title":"All Is Lost 2013 1080p 6CH H264 Pimp4003","uid":9540121,"size":3263140491,"categoryP":"video","categoryS":"hd___movies","magnet":"?xt=urn:btih:1e9a5ca1cbe4e901df1b7bd7b795519750f43fc1&amp;dn=All+Is+Lost+2013+1080p+6CH+H264+Pimp4003&amp;tr=udp%3A%2F%2Ftracker.openbittorrent.com%3A80&amp;tr=udp%3A%2F%2Fopen.demonii.com%3A1337&amp;tr=udp%3A%2F%2Ftracker.coppersurfer.tk%3A6969&amp;tr=udp%3A%2F%2Fexodus.desync.com%3A6969","seeders":1,"leechers":0,"uploader":"shawnmurthy","files":-1,"time":1391022960,"description":"Get all Pimp4003 newest releases first at \n\nWWW.PIMP4003.NET with VIP downloads speed\n\nRegister here and you can chat, request movies, view upcoming uploads and much more\n\nUPLOAD UNLIMITED IMAGES AND UP TO 10MB IN FILE SIZES FOR FREE....\n &lt;a href=&quot;\nhttp://www.piczhub.com&quot; rel=&quot;nofollow&quot; target=&quot;_NEW&quot;&gt;\nhttp://www.piczhub.com&lt;/a&gt;\n\n\nPIMP4003 AND PIMPRG PRESENTS \n\nAll Is Lost 2013 1080p 6CH H264 Pimp4003\n &lt;a href=&quot;\nhttp://www.imdb.com/title/tt2017038/&quot; rel=&quot;nofollow&quot; target=&quot;_NEW&quot;&gt;\nhttp://www.imdb.com/title/tt2017038/&lt;/a&gt;\n\nAfter a collision with a shipping container at sea, a resourceful sailor finds himself, despite all efforts to the contrary, staring his mortality in the face.\n\nDirector: J.C. Chandor\nWriter: J.C. Chandor\nStars: Robert Redford | See full cast and crew \n\nVideo\nID                                       : 1\nFormat                                   : AVC\nFormat/Info                              : Advanced Video Codec\nFormat profile                           : &lt;a class=&quot;__cf_email__&quot; href=&quot;/cdn-cgi/l/email-protection&quot; data-cfemail=&quot;b5f8d4dcdbf5f9819b85&quot;&gt;[email&amp;#160;protected]&lt;/a&gt;&lt;script cf-hash='f9e31' type=&quot;text/javascript&quot;&gt;\n/* &lt;![CDATA[ */!function(){try{var t=&quot;currentScript&quot;in document?document.currentScript:function(){for(var t=document.getElementsByTagName(&quot;script&quot;),e=t.length;e--;)if(t[e].getAttribute(&quot;cf-hash&quot;))return t[e]}();if(t&amp;&amp;t.previousSibling){var e,r,n,i,c=t.previousSibling,a=c.getAttribute(&quot;data-cfemail&quot;);if(a){for(e=&quot;&quot;,r=parseInt(a.substr(0,2),16),n=2;a.length-n;n+=2)i=parseInt(a.substr(n,2),16)^r,e+=String.fromCharCode(i);e=document.createTextNode(e),c.parentNode.replaceChild(e,c)}}}catch(u){}}();/* ]]&gt; */&lt;/script&gt;\nFormat settings, CABAC                   : Yes\nFormat settings, ReFrames                : 4 frames\nCodec ID                                 : avc1\nCodec ID/Info                            : Advanced Video Coding\nDuration                                 : 1h 45mn\nBit rate                                 : 3 726 Kbps\nWidth                                    : 1 920 pixels\nHeight                                   : 800 pixels\nDisplay aspect ratio                     : 2.40:1\nFrame rate mode                          : Variable\nFrame rate                               : 23.976 fps\nMinimum frame rate                       : 23.256 fps\nMaximum frame rate                       : 25.000 fps\nColor space                              : YUV\nChroma subsampling                       : 4:2:0\nBit depth                                : 8 bits\nScan type                                : Progressive\nBits/(Pixel*Frame)                       : 0.101\nStream size                              : 2.75 GiB (91%)\nWriting library                          : x264 core 130 r2273 b3065e6\nEncoding settings                        : cabac=1 / ref=1 / deblock=1:0:0 / analyse=0x1:0x111 / me=hex / subme=2 / psy=1 / psy_rd=1.00:0.00 / mixed_ref=0 / me_range=16 / chroma_me=1 / trellis=0 / 8x8dct=0 / cqm=0 / deadzone=21,11 / fast_pskip=1 / chroma_qp_offset=0 / threads=12 / lookahead_threads=4 / sliced_threads=0 / nr=0 / decimate=1 / interlaced=0 / bluray_compat=0 / constrained_intra=0 / bframes=3 / b_pyramid=2 / b_adapt=1 / b_bias=0 / direct=1 / weightb=1 / open_gop=0 / weightp=1 / keyint=240 / keyint_min=24 / scenecut=40 / intra_refresh=0 / rc_lookahead=10 / rc=crf / mbtree=1 / crf=20.0 / qcomp=0.60 / qpmin=0 / qpmax=69 / qpstep=4 / vbv_maxrate=20000 / vbv_bufsize=25000 / crf_max=0.0 / nal_hrd=none / ip_ratio=1.40 / aq=1:1.00\nEncoded date                             : UTC 2014-02-04 21:49:46\nTagged date                              : UTC 2014-02-04 22:42:16\nColor primaries                          : BT.709\nTransfer characteristics                 : BT.709\nMatrix coefficients                      : BT.709\n\nAudio\nID                                       : 2\nFormat                                   : AAC\nFormat/Info                              : Advanced Audio Codec\nFormat profile                           : LC\nCodec ID                                 : 40\nDuration                                 : 1h 45mn\nBit rate mode                            : Variable\nBit rate                                 : 384 Kbps\nMaximum bit rate                         : 694 Kbps\nChannel(s)                               : 6 channels\nChannel positions                        : Front: L C R, Side: L R, LFE\nSampling rate                            : 48.0 KHz\nCompression mode                         : Lossy\nStream size                              : 290 MiB (9%)\nLanguage                                 : English\nEncoded date                             : UTC 2014-02-04 21:49:46\nTagged date                              : UTC 2014-02-04 22:42:16\n &lt;a href=&quot;\nhttp://someimage.com/jYXOgtZ&quot; rel=&quot;nofollow&quot; target=&quot;_NEW&quot;&gt;\nhttp://someimage.com/jYXOgtZ&lt;/a&gt; &lt;a href=&quot;\nhttp://someimage.com/dz6vrdl&quot; rel=&quot;nofollow&quot; target=&quot;_NEW&quot;&gt;\nhttp://someimage.com/dz6vrdl&lt;/a&gt; &lt;a href=&quot;\nhttp://someimage.com/znRig3b&quot; rel=&quot;nofollow&quot; target=&quot;_NEW&quot;&gt;\nhttp://someimage.com/znRig3b&lt;/a&gt; &lt;a href=&quot;\nhttp://someimage.com/Blug2LE&quot; rel=&quot;nofollow&quot; target=&quot;_NEW&quot;&gt;\nhttp://someimage.com/Blug2LE&lt;/a&gt; &lt;a href=&quot;\nhttp://someimage.com/ZWs9KfO&quot; rel=&quot;nofollow&quot; target=&quot;_NEW&quot;&gt;\nhttp://someimage.com/ZWs9KfO&lt;/a&gt; &lt;a href=&quot;\nhttp://someimage.com/QzDUYzf&quot; rel=&quot;nofollow&quot; target=&quot;_NEW&quot;&gt;\nhttp://someimage.com/QzDUYzf&lt;/a&gt;\n","torrent":{"xt":"urn:btih:1e9a5ca1cbe4e901df1b7bd7b795519750f43fc1","amp;dn":"All+Is+Lost+2013+1080p+6CH+H264+Pimp4003","amp;tr":["udp%3A%2F%2Ftracker.openbittorrent.com%3A80","udp%3A%2F%2Fopen.demonii.com%3A1337","udp%3A%2F%2Ftracker.coppersurfer.tk%3A6969","udp%3A%2F%2Fexodus.desync.com%3A6969"],"infoHash":"1e9a5ca1cbe4e901df1b7bd7b795519750f43fc1","infoHashBuffer":{"type":"Buffer","data":[30,154,92,161,203,228,233,1,223,27,123,215,183,149,81,151,80,244,63,193]},"announce":[],"urlList":[]}}